<svg width="22" height="22" viewBox="0 0 22 22" fill="none" xmlns="http://www.w3.org/2000/svg">
<path d="M8.25 18.5625C8.25 18.8344 8.16936 19.1003 8.01827 19.3264C7.86718 19.5525 7.65244 19.7288 7.40119 19.8328C7.14994 19.9369 6.87347 19.9641 6.60675 19.9111C6.34003 19.858 6.09503 19.7271 5.90273 19.5348C5.71043 19.3425 5.57947 19.0975 5.52642 18.8307C5.47337 18.564 5.5006 18.2876 5.60467 18.0363C5.70874 17.7851 5.88497 17.5703 6.11109 17.4192C6.33721 17.2681 6.60305 17.1875 6.875 17.1875C7.23967 17.1875 7.58941 17.3324 7.84727 17.5902C8.10513 17.8481 8.25 18.1978 8.25 18.5625ZM15.8125 17.1875C15.5406 17.1875 15.2747 17.2681 15.0486 17.4192C14.8225 17.5703 14.6462 17.7851 14.5422 18.0363C14.4381 18.2876 14.4109 18.564 14.4639 18.8307C14.517 19.0975 14.6479 19.3425 14.8402 19.5348C15.0325 19.7271 15.2775 19.858 15.5443 19.9111C15.811 19.9641 16.0874 19.9369 16.3387 19.8328C16.5899 19.7288 16.8047 19.5525 16.9558 19.3264C17.1069 19.1003 17.1875 18.8344 17.1875 18.5625C17.1875 18.1978 17.0426 17.8481 16.7848 17.5902C16.5269 17.3324 16.1772 17.1875 15.8125 17.1875ZM19.9074 6.38945L17.4556 14.3567C17.3272 14.7791 17.0661 15.1488 16.711 15.411C16.3558 15.6733 15.9257 15.814 15.4842 15.8125H7.22477C6.77701 15.8108 6.34184 15.6641 5.98444 15.3944C5.62703 15.1247 5.36661 14.7465 5.24219 14.3163L2.13297 3.4375H0.6875C0.505164 3.4375 0.330295 3.36507 0.201364 3.23614C0.0724328 3.1072 0 2.93234 0 2.75C0 2.56766 0.0724328 2.3928 0.201364 2.26386C0.330295 2.13493 0.505164 2.0625 0.6875 2.0625H2.13297C2.43152 2.06349 2.72173 2.16115 2.96015 2.34085C3.19856 2.52055 3.37237 2.77264 3.45555 3.05937L4.1525 5.5H19.25C19.3576 5.49996 19.4637 5.52517 19.5597 5.5736C19.6558 5.62204 19.7392 5.69234 19.8031 5.77886C19.8671 5.86537 19.9098 5.96569 19.9279 6.07174C19.9461 6.17779 19.939 6.28661 19.9074 6.38945ZM18.3193 6.875H4.54523L6.56391 13.9391C6.60498 14.0826 6.69168 14.209 6.81092 14.2989C6.93015 14.3888 7.07542 14.4375 7.22477 14.4375H15.4842C15.6313 14.4376 15.7746 14.3904 15.8929 14.303C16.0112 14.2156 16.0984 14.0926 16.1416 13.952L18.3193 6.875Z" fill="black"/>
</svg>
