<svg width="180" height="168" viewBox="0 0 180 168" fill="none" xmlns="http://www.w3.org/2000/svg">
<rect x="25.5" y="18.5" width="130" height="130" rx="65" fill="#EC6046"/>
<rect x="25.5" y="18.5" width="130" height="130" rx="65" stroke="#5D1609" stroke-width="3"/>
<path d="M102 92.06C101.719 92.0598 101.449 91.9481 101.251 91.7493C101.052 91.5506 100.94 91.2811 100.94 91L100.939 75.5612L80.75 95.75C80.5511 95.9489 80.2813 96.0607 80 96.0607C79.7187 96.0607 79.4489 95.9489 79.25 95.75C79.0511 95.5511 78.9394 95.2813 78.9394 95C78.9394 94.7187 79.0511 94.4489 79.25 94.25L99.4388 74.0612L84 74.06C83.7254 74.0503 83.4652 73.9344 83.2743 73.7367C83.0834 73.5389 82.9768 73.2748 82.9768 73C82.9768 72.7252 83.0834 72.4611 83.2743 72.2633C83.4652 72.0656 83.7254 71.9497 84 71.94L102 71.94C102.281 71.9402 102.551 72.0519 102.749 72.2507C102.948 72.4494 103.06 72.7189 103.06 73L103.06 91C103.06 91.2811 102.948 91.5506 102.749 91.7493C102.551 91.9481 102.281 92.0598 102 92.06Z" fill="white"/>
<path d="M146.905 138.846L145.348 137.316L143.537 139.138L142.827 138.441L144.638 136.619L143.011 135.022L140.975 137.071L140.265 136.374L143.161 133.459L148.475 138.678L145.579 141.593L144.869 140.895L146.905 138.846Z" fill="#EC6046"/>
<path d="M137.682 142.501L134.3 141.419L135.366 140.541L137.63 141.269L137.274 138.969L138.257 138.16L138.643 141.598L142.032 142.689L140.967 143.566L138.702 142.839L139.059 145.138L138.076 145.948L137.682 142.501Z" fill="#EC6046"/>
<path d="M134.07 147.678C134.047 148.018 133.939 148.363 133.743 148.713C133.548 149.064 133.263 149.362 132.887 149.609C132.458 149.891 131.997 150.041 131.503 150.059C131.007 150.086 130.531 149.977 130.075 149.73C129.62 149.483 129.228 149.113 128.9 148.62C128.572 148.127 128.379 147.618 128.32 147.093C128.266 146.574 128.345 146.086 128.556 145.631C128.765 145.186 129.085 144.823 129.514 144.54C129.889 144.293 130.272 144.148 130.663 144.104C131.058 144.067 131.423 144.1 131.758 144.204L129.73 141.157L130.749 140.487L135.57 147.73L134.55 148.4L134.07 147.678ZM129.937 147.938C130.162 148.277 130.427 148.52 130.732 148.67C131.035 148.829 131.345 148.895 131.66 148.867C131.974 148.848 132.262 148.753 132.524 148.58C132.78 148.412 132.981 148.186 133.126 147.902C133.266 147.622 133.324 147.311 133.301 146.967C133.272 146.628 133.145 146.289 132.92 145.95C132.695 145.612 132.428 145.36 132.121 145.195C131.812 145.039 131.501 144.971 131.188 144.989C130.868 145.011 130.58 145.107 130.324 145.275C130.062 145.448 129.861 145.674 129.721 145.953C129.58 146.243 129.526 146.56 129.558 146.906C129.585 147.255 129.711 147.599 129.937 147.938Z" fill="#EC6046"/>
<path d="M127.527 154.908L123.79 147.926L124.869 147.356L128.606 154.337L127.527 154.908Z" fill="#EC6046"/>
<path d="M117.885 150.527C118.398 150.312 118.911 150.234 119.423 150.291C119.938 150.354 120.402 150.547 120.817 150.869C121.234 151.197 121.561 151.64 121.797 152.199C122.03 152.751 122.115 153.291 122.052 153.82C121.988 154.349 121.795 154.816 121.47 155.222C121.146 155.628 120.724 155.94 120.204 156.157C119.684 156.374 119.165 156.455 118.646 156.401C118.128 156.347 117.656 156.157 117.232 155.831C116.808 155.506 116.48 155.067 116.247 154.515C116.014 153.963 115.932 153.421 116.002 152.889C116.072 152.358 116.274 151.883 116.608 151.465C116.939 151.057 117.365 150.744 117.885 150.527ZM118.297 151.503C118.007 151.624 117.766 151.805 117.575 152.048C117.376 152.293 117.256 152.586 117.215 152.928C117.173 153.27 117.236 153.638 117.402 154.033C117.569 154.427 117.785 154.727 118.05 154.934C118.318 155.146 118.606 155.27 118.914 155.303C119.223 155.337 119.522 155.293 119.812 155.172C120.101 155.052 120.342 154.87 120.534 154.627C120.719 154.388 120.826 154.1 120.854 153.763C120.885 153.433 120.818 153.071 120.651 152.677C120.404 152.092 120.065 151.7 119.632 151.502C119.196 151.313 118.751 151.313 118.297 151.503Z" fill="#EC6046"/>
<path d="M113.03 157.679C112.948 158.017 112.791 158.308 112.56 158.55C112.324 158.801 112.011 158.986 111.622 159.104L111.25 157.898L111.547 157.807C112.004 157.668 112.316 157.446 112.483 157.141C112.644 156.838 112.635 156.401 112.459 155.828L111.543 152.863L112.71 152.507L114.45 158.141L113.283 158.497L113.03 157.679Z" fill="#EC6046"/>
<path d="M101.95 158.272C101.906 158.055 101.88 157.857 101.873 157.676L106.291 156.793C106.162 156.339 105.916 156.003 105.552 155.784C105.187 155.566 104.781 155.502 104.334 155.591C103.69 155.72 103.29 156.08 103.133 156.672L101.842 156.929C101.91 156.363 102.139 155.862 102.532 155.428C102.919 155.001 103.451 154.72 104.13 154.584C104.683 154.474 105.204 154.497 105.694 154.654C106.179 154.819 106.592 155.1 106.935 155.497C107.272 155.903 107.5 156.403 107.62 156.997C107.74 157.591 107.727 158.136 107.579 158.631C107.426 159.135 107.158 159.552 106.774 159.883C106.382 160.216 105.903 160.439 105.337 160.552C104.791 160.662 104.281 160.64 103.806 160.487C103.331 160.335 102.931 160.066 102.606 159.68C102.281 159.301 102.063 158.831 101.95 158.272ZM103.275 158.4C103.371 158.839 103.6 159.161 103.961 159.365C104.323 159.569 104.731 159.626 105.186 159.535C105.598 159.453 105.925 159.249 106.165 158.925C106.406 158.607 106.51 158.219 106.475 157.76L103.275 158.4Z" fill="#EC6046"/>
<path d="M86.3954 161.925C85.9317 161.921 85.5188 161.821 85.1567 161.625C84.7874 161.429 84.5009 161.142 84.2973 160.762C84.0866 160.382 83.9836 159.924 83.9882 159.389L84.0184 155.912L85.2276 155.922L85.199 159.218C85.1944 159.746 85.3229 160.15 85.5844 160.43C85.8459 160.718 86.2049 160.864 86.6614 160.868C87.118 160.872 87.483 160.732 87.7566 160.449C88.023 160.173 88.1584 159.771 88.163 159.243L88.1916 155.947L89.4008 155.958L89.3722 159.254C89.3676 159.781 89.4961 160.186 89.7576 160.466C90.0191 160.754 90.3781 160.899 90.8346 160.903C91.2912 160.907 91.6563 160.768 91.9298 160.485C92.1962 160.209 92.3317 159.807 92.3362 159.279L92.3649 155.983L93.5847 155.994L93.5335 161.89L92.3137 161.879L92.3195 161.205C92.1177 161.446 91.8628 161.633 91.5549 161.766C91.2469 161.899 90.9182 161.964 90.5686 161.961C90.0978 161.957 89.6778 161.853 89.3086 161.65C88.9394 161.447 88.6565 161.156 88.4601 160.776C88.2786 161.131 87.998 161.411 87.6181 161.614C87.2381 161.825 86.8306 161.928 86.3954 161.925Z" fill="#EC6046"/>
<path d="M79.4767 155.033C80.0274 155.112 80.5072 155.307 80.916 155.619C81.3238 155.937 81.6219 156.34 81.8102 156.829C81.9974 157.324 82.0473 157.872 81.9598 158.472C81.8733 159.065 81.666 159.572 81.3378 159.993C81.0097 160.414 80.6016 160.716 80.1137 160.898C79.6257 161.08 79.1028 161.131 78.545 161.05C77.9872 160.97 77.5004 160.774 77.0845 160.461C76.6686 160.149 76.3635 159.745 76.1692 159.248C75.9748 158.752 75.9209 158.207 76.0074 157.614C76.0939 157.021 76.3047 156.514 76.64 156.094C76.9752 155.674 77.3944 155.371 77.8975 155.184C78.3925 155.003 78.9189 154.952 79.4767 155.033ZM79.3238 156.081C79.0131 156.036 78.7128 156.069 78.4229 156.178C78.1259 156.287 77.871 156.477 77.6583 156.749C77.4456 157.021 77.3084 157.369 77.2466 157.793C77.1848 158.216 77.214 158.584 77.3342 158.897C77.4534 159.217 77.6363 159.471 77.883 159.657C78.1297 159.844 78.4084 159.96 78.7191 160.005C79.0298 160.05 79.3301 160.017 79.62 159.908C79.9029 159.797 80.1436 159.605 80.3422 159.331C80.5398 159.064 80.6694 158.718 80.7312 158.295C80.8228 157.667 80.735 157.157 80.4677 156.765C80.1923 156.379 79.811 156.151 79.3238 156.081Z" fill="#EC6046"/>
<path d="M71.6055 158.683C71.3597 158.931 71.0749 159.099 70.7512 159.188C70.4188 159.283 70.0552 159.281 69.6604 159.183L69.9666 157.958L70.2678 158.033C70.7319 158.147 71.1145 158.117 71.4157 157.942C71.71 157.764 71.9298 157.385 72.0751 156.804L72.8274 153.793L74.0117 154.086L72.5822 159.806L71.3979 159.513L71.6055 158.683Z" fill="#EC6046"/>
<path d="M61.7979 153.518C61.8726 153.31 61.9536 153.127 62.0408 152.969L66.2862 154.476C66.4118 154.021 66.3749 153.607 66.1756 153.233C65.9763 152.859 65.6615 152.596 65.2312 152.443C64.6128 152.224 64.0829 152.327 63.6417 152.753L62.4014 152.313C62.7527 151.862 63.2094 151.551 63.7713 151.38C64.324 151.213 64.9265 151.245 65.5786 151.477C66.1097 151.665 66.5448 151.952 66.8839 152.338C67.2139 152.727 67.4227 153.18 67.5104 153.695C67.5889 154.215 67.5256 154.761 67.3206 155.331C67.1156 155.902 66.8216 156.362 66.4387 156.71C66.0466 157.063 65.5999 157.283 65.0987 157.37C64.5908 157.455 64.0645 157.4 63.52 157.207C62.9956 157.021 62.5693 156.741 62.2413 156.367C61.9132 155.993 61.7096 155.557 61.6306 155.06C61.5491 154.569 61.6049 154.055 61.7979 153.518ZM62.8676 154.307C62.7224 154.732 62.7519 155.125 62.956 155.485C63.1602 155.845 63.4807 156.103 63.9177 156.258C64.3143 156.399 64.6997 156.392 65.0737 156.237C65.4453 156.089 65.7352 155.809 65.9433 155.399L62.8676 154.307Z" fill="#EC6046"/>
<path d="M54.1717 154.553L54.1123 153.574L55.6723 153.719L54.5898 152.593L55.4173 152.017L56.0954 153.412L56.5717 151.919L57.4589 152.346L56.5969 153.653L58.127 153.296L58.192 154.337L56.6416 154.197L57.7238 155.299L56.8963 155.875L56.1893 154.466L55.6986 155.964L54.8017 155.533L55.6974 154.23L54.1717 154.553Z" fill="#EC6046"/>
<path d="M154.943 129.106L153.967 128.971L154.424 127.478L153.097 128.311L152.698 127.391L154.207 127.004L152.834 126.246L153.433 125.464L154.546 126.563L154.504 125L155.541 125.142L155.091 126.627L156.394 125.788L156.794 126.709L155.264 127.121L156.64 127.895L156.034 128.684L154.932 127.554L154.943 129.106Z" fill="#EC6046"/>
<path d="M49.3088 150.893L50.4622 149.039L48.2746 147.694L48.8004 146.849L50.988 148.194L52.1923 146.259L49.7312 144.745L50.257 143.9L53.7572 146.053L49.8222 152.377L46.322 150.224L46.8478 149.379L49.3088 150.893Z" fill="#EC6046"/>
<path d="M43.6606 142.776L43.967 139.257L45.0653 140.093L44.8574 142.449L47.0322 141.59L48.0454 142.362L44.7601 143.505L44.4472 147.033L43.3488 146.196L43.5568 143.84L41.382 144.699L40.3688 143.928L43.6606 142.776Z" fill="#EC6046"/>
<path d="M37.7693 140.437C37.4315 140.49 37.0689 140.461 36.6816 140.35C36.2943 140.239 35.9374 140.029 35.6111 139.72C35.2381 139.366 34.9876 138.952 34.8596 138.478C34.7215 138.003 34.7223 137.517 34.8621 137.021C35.0018 136.525 35.2764 136.062 35.6861 135.635C36.0957 135.207 36.5514 134.907 37.0533 134.734C37.5502 134.566 38.0454 134.533 38.5388 134.637C39.0221 134.741 39.4502 134.97 39.8232 135.323C40.1496 135.632 40.378 135.971 40.5085 136.34C40.634 136.714 40.6833 137.075 40.6563 137.423L43.1881 134.78L44.0739 135.619L38.0555 141.901L37.1696 141.063L37.7693 140.437ZM36.5874 136.488C36.3061 136.782 36.1265 137.093 36.0485 137.422C35.9603 137.751 35.9655 138.066 36.0639 138.365C36.1521 138.665 36.3103 138.923 36.5382 139.138C36.7609 139.349 37.0276 139.494 37.3382 139.572C37.6437 139.645 37.9622 139.632 38.2938 139.533C38.6202 139.43 38.9241 139.231 39.2054 138.938C39.4867 138.644 39.6739 138.33 39.7669 137.996C39.8499 137.662 39.8472 137.345 39.7589 137.045C39.6655 136.74 39.5074 136.483 39.2846 136.272C39.0567 136.056 38.79 135.911 38.4846 135.838C38.169 135.766 37.8456 135.784 37.5142 135.892C37.1777 135.996 36.8687 136.195 36.5874 136.488Z" fill="#EC6046"/>
<path d="M29.2168 135.71L35.2152 130.54L36.017 131.46L30.0186 136.629L29.2168 135.71Z" fill="#EC6046"/>
<path d="M31.3322 125.398C31.658 125.849 31.8508 126.33 31.9107 126.839C31.9648 127.353 31.8812 127.846 31.66 128.32C31.4329 128.797 31.0726 129.212 30.579 129.564C30.0913 129.913 29.5814 130.114 29.0494 130.17C28.5174 130.225 28.0162 130.14 27.5456 129.915C27.0751 129.69 26.6748 129.349 26.3449 128.892C26.0149 128.435 25.8179 127.949 25.7538 127.434C25.6897 126.919 25.7691 126.42 25.992 125.936C26.2149 125.453 26.5703 125.037 27.058 124.689C27.5458 124.341 28.0577 124.142 28.5939 124.092C29.13 124.043 29.6404 124.134 30.1251 124.367C30.5999 124.598 31.0022 124.941 31.3322 125.398ZM30.4699 126.014C30.2861 125.759 30.0539 125.566 29.7732 125.433C29.4884 125.294 29.1739 125.243 28.8298 125.278C28.4857 125.313 28.1394 125.455 27.791 125.704C27.4426 125.953 27.1974 126.228 27.0554 126.531C26.9076 126.839 26.8521 127.145 26.8889 127.452C26.9256 127.759 27.0359 128.04 27.2197 128.294C27.4035 128.549 27.6357 128.742 27.9163 128.875C28.1928 129.002 28.499 129.042 28.8347 128.995C29.1647 128.953 29.5039 128.807 29.8523 128.558C30.369 128.189 30.6757 127.773 30.7723 127.31C30.8589 126.845 30.7581 126.413 30.4699 126.014Z" fill="#EC6046"/>
<path d="M23.2432 122.285C22.8938 122.28 22.5745 122.192 22.2854 122.02C21.9865 121.846 21.735 121.583 21.5309 121.232L22.6264 120.604L22.7821 120.872C23.0219 121.285 23.3097 121.54 23.6455 121.635C23.9776 121.724 24.4036 121.62 24.9235 121.322L27.6156 119.778L28.2278 120.833L23.1127 123.766L22.5005 122.711L23.2432 122.285Z" fill="#EC6046"/>
<path d="M20.1646 111.665C20.3664 111.574 20.5545 111.505 20.7291 111.458L22.5901 115.561C23.005 115.336 23.2778 115.022 23.4085 114.62C23.5392 114.217 23.5103 113.808 23.3217 113.392C23.0506 112.794 22.6084 112.484 21.9952 112.462L21.4515 111.264C22.0199 111.204 22.5608 111.317 23.0743 111.603C23.5783 111.885 23.9733 112.342 24.2591 112.972C24.4919 113.485 24.5872 113.997 24.545 114.509C24.4934 115.017 24.3123 115.481 24.0018 115.902C23.6818 116.319 23.2451 116.651 22.6918 116.899C22.1385 117.147 21.6034 117.254 21.0866 117.22C20.5603 117.183 20.0919 117.013 19.6813 116.713C19.2678 116.406 18.9417 115.989 18.703 115.463C18.4732 114.956 18.379 114.455 18.4206 113.959C18.4621 113.464 18.6346 113.015 18.938 112.613C19.2349 112.214 19.6438 111.898 20.1646 111.665ZM20.3391 112.982C19.9319 113.172 19.6695 113.466 19.5518 113.863C19.4341 114.259 19.471 114.669 19.6625 115.091C19.8364 115.474 20.1089 115.747 20.48 115.909C20.8447 116.074 21.2471 116.089 21.6873 115.954L20.3391 112.982Z" fill="#EC6046"/>
<path d="M13.1163 97.381C13.0161 96.9283 13.0207 96.5037 13.1303 96.1073C13.2383 95.704 13.4546 95.3609 13.7792 95.0781C14.1023 94.7883 14.5252 94.5862 15.0479 94.4719L18.4453 93.7285L18.7067 94.9092L15.487 95.6136C14.9713 95.7264 14.606 95.9414 14.3913 96.2586C14.1696 96.5773 14.1081 96.9596 14.2067 97.4054C14.3054 97.8511 14.5234 98.1759 14.8608 98.3796C15.1897 98.5778 15.6119 98.6205 16.1277 98.5077L19.3474 97.8033L19.6088 98.9839L16.389 99.6883C15.8733 99.8012 15.5081 100.016 15.2933 100.333C15.0716 100.652 15.0101 101.034 15.1088 101.48C15.2075 101.926 15.4255 102.251 15.7629 102.454C16.0917 102.653 16.514 102.695 17.0297 102.582L20.2494 101.878L20.5131 103.069L14.7531 104.329L14.4895 103.138L15.148 102.994C14.8679 102.851 14.6285 102.644 14.4298 102.374C14.2311 102.103 14.0939 101.797 14.0184 101.456C13.9166 100.996 13.9232 100.564 14.0381 100.159C14.1531 99.754 14.3737 99.4136 14.6999 99.1378C14.3128 99.0399 13.9774 98.8284 13.6936 98.5035C13.4028 98.1801 13.2104 97.8059 13.1163 97.381Z" fill="#EC6046"/>
<path d="M18.3002 89.1598C18.3456 89.7143 18.2622 90.2257 18.0501 90.6938C17.8308 91.1624 17.5041 91.5432 17.07 91.836C16.6287 92.1294 16.1059 92.3006 15.5015 92.3495C14.9042 92.3979 14.3637 92.3092 13.8799 92.0836C13.3962 91.8579 13.0112 91.5277 12.7251 91.0928C12.4389 90.6579 12.2728 90.1596 12.2268 89.5979C12.1808 89.0362 12.2636 88.5177 12.4752 88.0425C12.6868 87.5673 13.0129 87.1795 13.4535 86.879C13.8941 86.5785 14.4131 86.404 15.0104 86.3556C15.6077 86.3073 16.1485 86.3995 16.6329 86.6322C17.1172 86.865 17.5066 87.2056 17.801 87.6542C18.0878 88.0962 18.2541 88.598 18.3002 89.1598ZM17.2442 89.2453C17.2186 88.9324 17.12 88.6469 16.9486 88.3888C16.7765 88.1236 16.5342 87.9178 16.2216 87.7713C15.9089 87.6249 15.5393 87.5689 15.1127 87.6035C14.686 87.638 14.3336 87.7489 14.0555 87.936C13.7702 88.1237 13.564 88.3587 13.4368 88.641C13.3096 88.9233 13.2589 89.2208 13.2845 89.5337C13.3101 89.8465 13.4087 90.132 13.5801 90.3901C13.751 90.6411 13.9922 90.8327 14.3037 90.9649C14.608 91.0978 14.9735 91.1469 15.4001 91.1123C16.033 91.0611 16.5105 90.8614 16.8327 90.5132C17.1473 90.1585 17.2844 89.7359 17.2442 89.2453Z" fill="#EC6046"/>
<path d="M12.9958 82.3494C12.6995 82.1656 12.472 81.926 12.3133 81.6306C12.1477 81.3279 12.0685 80.9733 12.076 80.5667L13.3385 80.5896L13.3328 80.8999C13.324 81.3778 13.4386 81.7438 13.6766 81.9978C13.9146 82.2447 14.3332 82.3736 14.9324 82.3845L18.0351 82.4408L18.0128 83.6605L12.1175 83.5535L12.1399 82.3338L12.9958 82.3494Z" fill="#EC6046"/>
<path d="M15.8656 71.667C16.0852 71.6928 16.2819 71.7303 16.4557 71.7795L15.9233 76.253C16.3951 76.2726 16.7913 76.1432 17.1118 75.8648C17.4323 75.5865 17.6195 75.2206 17.6734 74.7672C17.751 74.1155 17.533 73.623 17.0195 73.2896L17.1751 71.9826C17.6925 72.2231 18.0969 72.5975 18.3885 73.1058C18.6737 73.6063 18.7755 74.2001 18.6937 74.8873C18.6271 75.4469 18.4433 75.9353 18.1422 76.3524C17.8348 76.7616 17.4392 77.067 16.9554 77.2687C16.4654 77.4625 15.9193 77.524 15.317 77.4531C14.7148 77.3823 14.2013 77.1998 13.7765 76.9056C13.3455 76.6035 13.0321 76.2182 12.8364 75.7499C12.6415 75.2744 12.5783 74.7498 12.6466 74.176C12.7123 73.6234 12.8914 73.1452 13.1837 72.7415C13.476 72.3377 13.8561 72.0412 14.3241 71.852C14.7849 71.662 15.2988 71.6003 15.8656 71.667ZM15.3325 72.8865C14.8853 72.841 14.5085 72.9583 14.2022 73.2384C13.8959 73.5184 13.7153 73.8886 13.6605 74.3491C13.6107 74.7671 13.7028 75.1406 13.9366 75.4698C14.1633 75.7982 14.5001 76.0174 14.9468 76.1274L15.3325 72.8865Z" fill="#EC6046"/>
<path d="M13.1731 64.5222L14.1159 64.2431L14.3188 65.7929L15.1802 64.4855L15.9252 65.1601L14.7121 66.1349L16.2755 66.2605L16.0544 67.2199L14.5872 66.6771L15.2731 68.0845L14.2708 68.383L14.0656 66.8437L13.2275 68.1453L12.4825 67.4708L13.7027 66.4647L12.1313 66.3262L12.3548 65.3564L13.8253 65.9329L13.1731 64.5222Z" fill="#EC6046"/>
<path d="M15.6754 59.0019L17.7427 59.703L18.5763 57.2738L19.5188 57.5934L18.6852 60.0226L20.8437 60.7547L21.7815 58.0218L22.724 58.3415L21.3903 62.2282L14.337 59.8361L15.6707 55.9494L16.6132 56.2691L15.6754 59.0019Z" fill="#EC6046"/>
<path d="M22.371 51.7109L25.8846 51.2138L25.3085 52.4683L22.9548 52.7985L24.2769 54.7147L23.7454 55.8719L21.8996 52.9424L18.3763 53.435L18.9524 52.1806L21.306 51.8504L19.984 49.9342L20.5155 48.777L22.371 51.7109Z" fill="#EC6046"/>
<path d="M23.359 45.4895C23.2317 45.174 23.1795 44.8161 23.2027 44.4156C23.2258 44.015 23.3526 43.6218 23.5831 43.236C23.8464 42.795 24.1966 42.4591 24.6336 42.2282C25.0681 41.9876 25.5441 41.8793 26.0617 41.9031C26.5792 41.9269 27.093 42.0893 27.6029 42.3903C28.1128 42.6912 28.5083 43.0655 28.7895 43.5131C29.0644 43.957 29.2059 44.4298 29.2137 44.9315C29.2191 45.4234 29.0901 45.8898 28.8267 46.3308C28.5963 46.7167 28.3147 47.0143 27.9818 47.2238C27.6429 47.4297 27.3 47.5586 26.9531 47.6107L30.1048 49.4709L29.4794 50.5182L21.9871 46.0963L22.6126 45.0489L23.359 45.4895ZM26.9664 43.456C26.6162 43.2493 26.2713 43.1451 25.9316 43.1435C25.5895 43.132 25.2826 43.2077 25.0109 43.3704C24.7367 43.5234 24.5192 43.7346 24.3582 44.0041C24.201 44.2675 24.1186 44.5585 24.1111 44.8771C24.1073 45.1897 24.1905 45.4956 24.3607 45.7949C24.5346 46.088 24.7967 46.338 25.1469 46.5446C25.4971 46.7513 25.8463 46.8622 26.1946 46.8772C26.5404 46.8825 26.8504 46.8087 27.1246 46.6557C27.4024 46.4966 27.6199 46.2854 27.7772 46.022C27.9382 45.7525 28.0205 45.4615 28.0244 45.149C28.0257 44.8267 27.9364 44.5172 27.7563 44.2204C27.5799 43.9175 27.3166 43.6627 26.9664 43.456Z" fill="#EC6046"/>
<path d="M26.0902 36.1527L32.4957 40.8084L31.7729 41.7912L25.3675 37.1355L26.0902 36.1527Z" fill="#EC6046"/>
<path d="M36.6778 35.9073C36.3085 36.3235 35.8808 36.6174 35.3948 36.7889C34.9034 36.9558 34.4008 36.9847 33.8871 36.8758C33.368 36.7621 32.8805 36.5054 32.4246 36.1056C31.974 35.7105 31.662 35.2613 31.4886 34.7581C31.3152 34.255 31.2861 33.7503 31.4014 33.2442C31.5167 32.738 31.7614 32.2742 32.1355 31.8526C32.5095 31.4311 32.942 31.1319 33.4327 30.955C33.9235 30.7781 34.4308 30.7438 34.9546 30.8521C35.4784 30.9604 35.9656 31.2122 36.4162 31.6073C36.8667 32.0024 37.1763 32.4542 37.345 32.9627C37.5137 33.4712 37.5384 33.9863 37.419 34.5078C37.2989 35.0192 37.0519 35.4858 36.6778 35.9073ZM35.8813 35.2088C36.0896 34.974 36.2275 34.7058 36.2948 34.4043C36.3668 34.0974 36.347 33.7812 36.2354 33.4555C36.1237 33.1299 35.907 32.826 35.5852 32.5438C35.2634 32.2615 34.938 32.0854 34.6092 32.0152C34.2751 31.9404 33.9617 31.955 33.6691 32.059C33.3766 32.163 33.1261 32.3324 32.9178 32.5671C32.7094 32.8019 32.5716 33.0701 32.5043 33.3716C32.4418 33.6679 32.471 33.9734 32.5921 34.2884C32.7079 34.5986 32.9267 34.8949 33.2485 35.1771C33.7258 35.5957 34.2025 35.8002 34.6783 35.7906C35.1536 35.7709 35.5546 35.577 35.8813 35.2088Z" fill="#EC6046"/>
<path d="M37.9251 27.3786C37.8516 27.0386 37.8663 26.7095 37.9692 26.3912C38.0725 26.0628 38.2735 25.7607 38.5723 25.4849L39.4343 26.4076L39.2062 26.6182C38.855 26.9424 38.6705 27.2778 38.6526 27.6244C38.64 27.9662 38.8382 28.3561 39.2472 28.794L41.3656 31.0618L40.4692 31.8893L36.4444 27.5804L37.3407 26.753L37.9251 27.3786Z" fill="#EC6046"/>
<path d="M47.6465 22.0416C47.7807 22.2175 47.8904 22.3849 47.9758 22.5439L44.3787 25.2561C44.6927 25.609 45.0616 25.8044 45.4853 25.8423C45.9091 25.8801 46.3032 25.7617 46.6678 25.4868C47.1918 25.0916 47.3955 24.5941 47.2787 23.9942L48.3297 23.2018C48.5161 23.7402 48.5274 24.2901 48.3635 24.8515C48.2009 25.4029 47.8434 25.8869 47.2909 26.3035C46.8409 26.6428 46.3607 26.8485 45.8504 26.9206C45.3415 26.9827 44.846 26.9095 44.364 26.7012C43.8833 26.4828 43.4591 26.1326 43.0913 25.6505C42.7235 25.1684 42.498 24.6728 42.4147 24.1638C42.3328 23.6448 42.3927 23.1529 42.5944 22.6881C42.8019 22.219 43.1363 21.8105 43.5976 21.4626C44.042 21.1276 44.5114 20.9255 45.006 20.8564C45.5006 20.7872 45.9789 20.8555 46.4408 21.0611C46.8984 21.2611 47.3003 21.5879 47.6465 22.0416ZM46.3961 22.502C46.1178 22.149 45.7711 21.9592 45.356 21.9327C44.9409 21.9061 44.5483 22.0324 44.178 22.3116C43.842 22.565 43.6365 22.8896 43.5617 23.2856C43.4826 23.6758 43.5587 24.0696 43.79 24.467L46.3961 22.502Z" fill="#EC6046"/>
<path d="M60.055 12.0319C60.4746 11.8345 60.8904 11.7454 61.3024 11.7645C61.7209 11.7805 62.105 11.9152 62.4546 12.1686C62.8108 12.4189 63.1038 12.7857 63.3337 13.2688L64.8281 16.4092L63.7339 16.9238L62.3176 13.9477C62.0908 13.471 61.7982 13.1632 61.4398 13.0243C61.0783 12.879 60.691 12.9035 60.2778 13.0978C59.8646 13.2921 59.5967 13.5758 59.474 13.9488C59.3547 14.3124 59.4085 14.7325 59.6353 15.2092L61.0516 18.1853L59.9573 18.6999L58.5411 15.7238C58.3142 15.2471 58.0216 14.9393 57.6632 14.8005C57.3017 14.6551 56.9144 14.6796 56.5012 14.8739C56.0881 15.0682 55.8201 15.3519 55.6975 15.725C55.5781 16.0885 55.6319 16.5086 55.8588 16.9853L57.275 19.9614L56.1711 20.4806L53.6375 15.1565L54.7414 14.6373L55.0311 15.2461C55.1076 14.942 55.2556 14.6635 55.4749 14.4106C55.6943 14.1576 55.9621 13.9568 56.2784 13.808C56.7045 13.6076 57.1283 13.5187 57.5498 13.5412C57.9714 13.5637 58.3537 13.7031 58.697 13.9595C58.7051 13.5615 58.8358 13.1887 59.089 12.8409C59.3392 12.4868 59.6612 12.2171 60.055 12.0319Z" fill="#EC6046"/>
<path d="M69.2968 15.2452C68.766 15.4122 68.2484 15.4442 67.7439 15.3412C67.2373 15.2314 66.7922 14.9975 66.4087 14.6395C66.0231 14.2747 65.7383 13.8035 65.5543 13.2256C65.3725 12.6546 65.3372 12.1086 65.4483 11.5875C65.5594 11.0664 65.7948 10.6184 66.1546 10.2434C66.5144 9.86849 66.9631 9.59643 67.5007 9.42728C68.0383 9.25812 68.5627 9.22399 69.074 9.32487C69.5853 9.42576 70.0371 9.65751 70.4296 10.0201C70.8221 10.3828 71.1092 10.8496 71.291 11.4206C71.4728 11.9916 71.5047 12.5387 71.3868 13.062C71.2689 13.5852 71.0243 14.0398 70.6531 14.4259C70.2865 14.803 69.8344 15.0761 69.2968 15.2452ZM68.9754 14.2358C69.2748 14.1416 69.5311 13.9824 69.7443 13.7583C69.9642 13.532 70.1104 13.2504 70.1828 12.9135C70.2553 12.5766 70.2265 12.2043 70.0967 11.7964C69.9668 11.3885 69.7793 11.0699 69.534 10.8404C69.2866 10.6041 69.0109 10.4553 68.7069 10.3939C68.4028 10.3325 68.1011 10.349 67.8017 10.4432C67.5022 10.5374 67.246 10.6965 67.0328 10.9207C66.8265 11.1426 66.6939 11.4199 66.6351 11.7526C66.5741 12.0784 66.6085 12.4452 66.7384 12.8531C66.931 13.4581 67.2335 13.8789 67.6457 14.1157C68.0626 14.3435 68.5059 14.3835 68.9754 14.2358Z" fill="#EC6046"/>
<path d="M74.7842 8.55826C74.8968 8.22865 75.0794 7.95369 75.3318 7.73337C75.5897 7.50462 75.9177 7.34869 76.3157 7.26558L76.5767 8.50103L76.2729 8.56445C75.805 8.66214 75.474 8.85515 75.2797 9.1435C75.0924 9.43039 75.0607 9.86699 75.1845 10.4533L75.8259 13.4896L74.6318 13.7389L73.4131 7.96999L74.6072 7.72067L74.7842 8.55826Z" fill="#EC6046"/>
<path d="M85.8723 8.96721C85.8961 9.18707 85.9035 9.38718 85.8944 9.56753L81.415 10.048C81.5012 10.5123 81.7158 10.8696 82.0587 11.1198C82.4016 11.37 82.8001 11.4708 83.254 11.4221C83.9066 11.3521 84.338 11.0295 84.5483 10.4545L85.857 10.3141C85.7382 10.8722 85.4636 11.3501 85.0331 11.7478C84.609 12.1377 84.0529 12.3695 83.3649 12.4434C82.8045 12.5035 82.2874 12.4334 81.8136 12.2331C81.3461 12.0249 80.96 11.7076 80.6554 11.2811C80.3571 10.8467 80.1752 10.3281 80.1098 9.72525C80.0444 9.1224 80.1076 8.58109 80.2995 8.10131C80.4978 7.61368 80.8033 7.22216 81.2161 6.92675C81.6361 6.63059 82.1333 6.45169 82.7079 6.39006C83.2611 6.33071 83.7672 6.3984 84.2261 6.59312C84.6849 6.78785 85.0588 7.09214 85.3477 7.50599C85.6358 7.91275 85.8107 8.39983 85.8723 8.96721ZM84.5646 8.72004C84.509 8.27399 84.3105 7.93295 83.9691 7.69692C83.6278 7.46089 83.2266 7.3676 82.7655 7.41706C82.347 7.46195 82.0034 7.63513 81.7348 7.93659C81.4653 8.23096 81.3269 8.60815 81.3194 9.06814L84.5646 8.72004Z" fill="#EC6046"/>
<path d="M92.2828 4.73409L92.7643 5.59017L91.2983 6.13592L92.7643 6.68167L92.2721 7.55915L91.0522 6.59606L91.2769 8.1477H90.2924L90.4957 6.59606L89.2758 7.58055L88.7622 6.67097L90.2175 6.12522L88.7622 5.60087L89.2544 4.72339L90.5064 5.68648L90.2924 4.12414H91.2876L91.0522 5.68648L92.2828 4.73409Z" fill="#EC6046"/>
<path d="M98.2643 5.92721L98.0374 8.09839L100.592 8.36219L100.489 9.35199L97.934 9.08819L97.6971 11.3552L100.571 11.6519L100.468 12.6417L96.3802 12.2196L97.1542 4.8121L101.242 5.23419L101.138 6.22399L98.2643 5.92721Z" fill="#EC6046"/>
<path d="M106.898 10.7969L108.159 14.1024L106.807 13.8256L105.965 11.6108L104.385 13.33L103.137 13.0747L105.591 10.6168L104.333 7.30092L105.685 7.5777L106.527 9.79252L108.107 8.07331L109.355 8.32863L106.898 10.7969Z" fill="#EC6046"/>
<path d="M113.227 10.35C113.507 10.1549 113.846 10.0233 114.243 9.95521C114.64 9.8871 115.052 9.92134 115.48 10.0579C115.97 10.214 116.375 10.4783 116.697 10.8506C117.029 11.2183 117.24 11.6562 117.33 12.1645C117.421 12.6727 117.376 13.2085 117.194 13.772C117.012 14.3355 116.733 14.8044 116.357 15.1788C115.984 15.5464 115.553 15.7907 115.064 15.9118C114.584 16.0283 114.099 16.0085 113.61 15.8524C113.182 15.7158 112.829 15.5095 112.55 15.2336C112.274 14.9508 112.072 14.6468 111.945 14.3216L110.821 17.8044L109.659 17.4337L112.331 9.15441L113.493 9.52516L113.227 10.35ZM116.011 13.3948C116.136 13.0078 116.162 12.6491 116.089 12.3187C116.024 11.9837 115.883 11.7027 115.664 11.4755C115.454 11.2438 115.199 11.0802 114.9 10.9848C114.608 10.8916 114.305 10.8774 113.992 10.9422C113.685 11.0091 113.404 11.1592 113.149 11.3923C112.901 11.6275 112.714 11.9387 112.589 12.3256C112.464 12.7126 112.433 13.077 112.495 13.4188C112.566 13.756 112.707 14.0404 112.917 14.2722C113.134 14.5061 113.388 14.6697 113.68 14.7629C113.98 14.8583 114.282 14.8725 114.589 14.8056C114.904 14.734 115.187 14.5771 115.438 14.3351C115.695 14.0952 115.886 13.7818 116.011 13.3948Z" fill="#EC6046"/>
<path d="M122.997 10.8968L119.854 18.1649L118.732 17.6855L121.875 10.4174L122.997 10.8968Z" fill="#EC6046"/>
<path d="M125.595 21.1108C125.106 20.8464 124.723 20.4979 124.447 20.0652C124.175 19.6263 124.035 19.1454 124.028 18.6227C124.025 18.0938 124.168 17.5632 124.459 17.0311C124.746 16.5052 125.117 16.1016 125.572 15.8201C126.027 15.5386 126.515 15.3967 127.036 15.3946C127.558 15.3924 128.066 15.5252 128.562 15.793C129.058 16.0608 129.447 16.4127 129.729 16.8488C130.011 17.2848 130.157 17.769 130.167 18.3014C130.177 18.8337 130.038 19.3628 129.751 19.8887C129.463 20.4146 129.089 20.8166 128.628 21.0947C128.168 21.3728 127.668 21.5127 127.131 21.5143C126.603 21.5131 126.091 21.3786 125.595 21.1108ZM126.103 20.1811C126.38 20.3303 126.673 20.4035 126.983 20.4009C127.3 20.4016 127.605 20.3112 127.9 20.1296C128.194 19.948 128.444 19.6694 128.649 19.2938C128.854 18.9182 128.955 18.563 128.951 18.2284C128.95 17.8875 128.866 17.5869 128.7 17.3266C128.533 17.0664 128.312 16.8616 128.035 16.7125C127.759 16.5633 127.466 16.4901 127.155 16.4927C126.851 16.4988 126.558 16.596 126.277 16.7844C125.998 16.9665 125.757 17.2453 125.551 17.6209C125.247 18.1781 125.152 18.6863 125.267 19.1456C125.391 19.6021 125.67 19.9472 126.103 20.1811Z" fill="#EC6046"/>
<path d="M134.249 20.4008C134.566 20.2534 134.892 20.1939 135.227 20.2222C135.571 20.2487 135.912 20.3758 136.249 20.6035L135.536 21.6458L135.279 21.472C134.883 21.2043 134.513 21.1007 134.17 21.161C133.832 21.2254 133.494 21.5049 133.155 21.9995L131.403 24.561L130.393 23.8778L133.721 19.0111L134.732 19.6942L134.249 20.4008Z" fill="#EC6046"/>
<path d="M141.66 28.6242C141.518 28.7934 141.378 28.9372 141.242 29.0554L137.778 26.1747C137.502 26.5577 137.393 26.9588 137.451 27.3778C137.508 27.7969 137.713 28.1524 138.064 28.4443C138.568 28.864 139.102 28.9504 139.664 28.7034L140.676 29.545C140.19 29.8458 139.653 29.9794 139.066 29.9458C138.489 29.9113 137.934 29.6728 137.402 29.2303C136.969 28.87 136.66 28.4506 136.475 27.9721C136.3 27.4928 136.261 26.9964 136.358 26.4828C136.464 25.9683 136.713 25.4791 137.103 25.0152C137.494 24.5512 137.929 24.2221 138.41 24.0278C138.9 23.8327 139.396 23.781 139.897 23.8728C140.403 23.9692 140.878 24.2021 141.323 24.5716C141.75 24.9274 142.054 25.3372 142.232 25.8011C142.41 26.2649 142.45 26.7436 142.352 27.2371C142.258 27.7252 142.028 28.1876 141.66 28.6242ZM140.929 27.5152C141.213 27.1668 141.322 26.7885 141.255 26.3803C141.188 25.9722 140.977 25.6199 140.62 25.3234C140.296 25.0542 139.932 24.9276 139.527 24.9434C139.127 24.9538 138.758 25.1154 138.42 25.4282L140.929 27.5152Z" fill="#EC6046"/>
<path d="M154.268 38.4198C154.556 38.7832 154.737 39.1669 154.812 39.5709C154.89 39.9804 154.845 40.3828 154.676 40.778C154.511 41.1789 154.218 41.5442 153.797 41.8741L151.058 44.0181L150.308 43.0703L152.903 41.0384C153.318 40.713 153.554 40.361 153.609 39.9826C153.67 39.5998 153.558 39.2295 153.275 38.8716C152.991 38.5137 152.653 38.3165 152.26 38.2799C151.877 38.2445 151.478 38.3896 151.062 38.715L148.467 40.7469L147.716 39.7991L150.311 37.7672C150.727 37.4418 150.962 37.0898 151.017 36.7114C151.078 36.3286 150.967 35.9583 150.683 35.6004C150.4 35.2425 150.061 35.0453 149.668 35.0087C149.285 34.9733 148.886 35.1184 148.47 35.4438L145.875 37.4757L145.118 36.5195L149.76 32.8846L150.518 33.8408L149.987 34.2564C150.302 34.2634 150.608 34.3454 150.905 34.5023C151.203 34.6591 151.46 34.8746 151.677 35.1486C151.969 35.5176 152.152 35.9091 152.225 36.323C152.298 36.737 152.248 37.1388 152.074 37.5284C152.466 37.4483 152.86 37.4927 153.258 37.6615C153.661 37.8259 153.998 38.0787 154.268 38.4198Z" fill="#EC6046"/>
<path d="M153.204 48.0743C152.92 47.5954 152.772 47.0995 152.759 46.5867C152.751 46.0702 152.879 45.5862 153.143 45.1347C153.412 44.6796 153.809 44.299 154.332 43.9928C154.849 43.6903 155.375 43.5355 155.91 43.5286C156.445 43.5216 156.936 43.6516 157.384 43.9185C157.832 44.1853 158.2 44.5613 158.487 45.0463C158.774 45.5313 158.926 46.0333 158.943 46.5523C158.96 47.0713 158.836 47.5614 158.57 48.0227C158.304 48.4839 157.912 48.8659 157.395 49.1684C156.878 49.4709 156.35 49.6226 155.812 49.6234C155.273 49.6242 154.773 49.4868 154.312 49.2113C153.86 48.9383 153.491 48.5593 153.204 48.0743ZM154.118 47.5394C154.278 47.8096 154.492 48.0235 154.759 48.1811C155.03 48.3449 155.339 48.4249 155.684 48.4209C156.03 48.417 156.388 48.307 156.757 48.0909C157.127 47.8748 157.396 47.6223 157.565 47.3335C157.74 47.041 157.823 46.7403 157.814 46.4313C157.806 46.1224 157.721 45.8329 157.562 45.5627C157.402 45.2926 157.188 45.0787 156.921 44.921C156.657 44.7695 156.356 44.7018 156.017 44.718C155.685 44.7306 155.334 44.845 154.964 45.0611C154.416 45.3816 154.073 45.7683 153.935 46.221C153.806 46.6763 153.868 47.1158 154.118 47.5394Z" fill="#EC6046"/>
<path d="M160.972 51.9055C161.32 51.9423 161.63 52.0592 161.902 52.2561C162.184 52.4565 162.41 52.7412 162.581 53.11L161.434 53.6365L161.303 53.355C161.102 52.9214 160.838 52.6419 160.513 52.5166C160.19 52.3977 159.757 52.4631 159.212 52.713L156.391 54.0067L155.878 52.9002L161.237 50.442L161.75 51.5486L160.972 51.9055Z" fill="#EC6046"/>
<path d="M163.069 62.7617C162.86 62.8335 162.667 62.885 162.488 62.916L161.009 58.6606C160.576 58.8473 160.275 59.1353 160.109 59.5245C159.942 59.9137 159.933 60.3239 160.083 60.7552C160.299 61.3751 160.711 61.7239 161.319 61.8015L161.752 63.0447C161.18 63.0524 160.652 62.8907 160.167 62.5595C159.691 62.2328 159.339 61.7426 159.112 61.089C158.927 60.5566 158.878 60.0376 158.967 59.532C159.065 59.0308 159.287 58.5847 159.635 58.1937C159.991 57.8072 160.456 57.5155 161.03 57.3184C161.603 57.1214 162.146 57.0633 162.657 57.144C163.178 57.2292 163.629 57.4401 164.01 57.7768C164.394 58.1202 164.68 58.5648 164.87 59.1106C165.053 59.6362 165.101 60.1439 165.015 60.6338C164.928 61.1236 164.715 61.555 164.377 61.9278C164.045 62.2983 163.609 62.5762 163.069 62.7617ZM163.015 61.4337C163.438 61.2809 163.726 61.0123 163.88 60.6277C164.033 60.2431 164.033 59.8318 163.881 59.3938C163.743 58.9963 163.496 58.7 163.142 58.5051C162.794 58.3078 162.394 58.2564 161.944 58.3509L163.015 61.4337Z" fill="#EC6046"/>
<path d="M168.628 68.0297L167.902 68.6891L167.04 67.3817L166.837 68.9315L165.871 68.6467L166.536 67.2441L165.074 67.8077L164.853 66.8484L166.411 66.7019L165.178 65.7318L165.949 65.0292L166.808 66.3262L166.992 64.7916L167.958 65.0763L167.301 66.5103L168.776 65.9547L168.999 66.9245L167.423 67.0421L168.628 68.0297Z" fill="#EC6046"/>
<path d="M168.796 74.083L166.629 74.3466L166.943 76.8956L165.955 77.0158L165.642 74.4668L163.379 74.742L163.732 77.6096L162.744 77.7298L162.242 73.6514L169.635 72.7521L170.137 76.8304L169.149 76.9506L168.796 74.083Z" fill="#EC6046"/>
<path d="M165.968 83.5473L163.026 85.5175L162.995 84.1374L164.967 82.8201L162.94 81.6661L162.912 80.393L165.853 82.2333L168.806 80.2628L168.837 81.6428L166.865 82.9601L168.892 84.1141L168.921 85.3872L165.968 83.5473Z" fill="#EC6046"/>
<path d="M167.805 89.5762C168.057 89.8053 168.261 90.1054 168.415 90.4765C168.569 90.8476 168.627 91.257 168.588 91.7048C168.544 92.2166 168.377 92.6712 168.085 93.0689C167.799 93.4742 167.419 93.7784 166.943 93.9814C166.467 94.1844 165.934 94.2608 165.344 94.2107C164.754 94.1606 164.235 93.9948 163.787 93.7132C163.345 93.4323 163.012 93.0674 162.785 92.6186C162.565 92.1775 162.478 91.7011 162.521 91.1893C162.56 90.7416 162.683 90.3511 162.891 90.0179C163.105 89.6853 163.357 89.4203 163.646 89.2229L160 88.9131L160.104 87.6977L168.773 88.4342L168.668 89.6496L167.805 89.5762ZM165.451 92.974C165.856 93.0084 166.211 92.9527 166.518 92.8069C166.83 92.6687 167.073 92.4674 167.246 92.2029C167.426 91.9461 167.529 91.6613 167.556 91.3486C167.582 91.0429 167.529 90.7449 167.396 90.4544C167.263 90.171 167.055 89.9313 166.771 89.7354C166.486 89.5466 166.141 89.4349 165.736 89.4005C165.331 89.3661 164.969 89.4176 164.649 89.5551C164.336 89.7003 164.089 89.9014 163.91 90.1582C163.73 90.4221 163.626 90.7069 163.6 91.0125C163.573 91.3252 163.626 91.6233 163.759 91.9067C163.899 92.1978 164.115 92.438 164.406 92.6275C164.697 92.824 165.045 92.9395 165.451 92.974Z" fill="#EC6046"/>
<path d="M169.432 99.1651L161.641 97.7493L161.862 96.5495L169.653 97.9653L169.432 99.1651Z" fill="#EC6046"/>
<path d="M160.025 103.978C160.175 103.442 160.432 102.991 160.794 102.625C161.163 102.261 161.602 102.017 162.111 101.892C162.628 101.769 163.178 101.788 163.762 101.95C164.34 102.111 164.816 102.38 165.191 102.758C165.567 103.136 165.813 103.579 165.93 104.085C166.047 104.591 166.03 105.116 165.877 105.658C165.725 106.201 165.467 106.659 165.102 107.031C164.738 107.404 164.297 107.655 163.779 107.786C163.261 107.916 162.713 107.9 162.136 107.74C161.558 107.58 161.083 107.307 160.709 106.922C160.336 106.537 160.089 106.084 159.969 105.562C159.854 105.048 159.872 104.52 160.025 103.978ZM161.046 104.261C160.961 104.563 160.954 104.865 161.025 105.166C161.094 105.474 161.25 105.751 161.492 105.996C161.734 106.241 162.062 106.42 162.474 106.535C162.887 106.649 163.256 106.667 163.582 106.587C163.915 106.509 164.191 106.36 164.408 106.139C164.626 105.918 164.777 105.657 164.862 105.354C164.947 105.052 164.954 104.75 164.883 104.449C164.81 104.155 164.65 103.892 164.404 103.661C164.165 103.432 163.839 103.26 163.426 103.145C162.815 102.976 162.297 102.998 161.873 103.214C161.455 103.438 161.179 103.787 161.046 104.261Z" fill="#EC6046"/>
<path d="M162.628 112.192C162.842 112.467 162.973 112.77 163.019 113.101C163.069 113.442 163.02 113.802 162.871 114.18L161.694 113.724L161.807 113.435C161.982 112.99 162.002 112.607 161.867 112.287C161.729 111.974 161.381 111.709 160.822 111.492L157.929 110.37L158.374 109.235L163.872 111.366L163.426 112.502L162.628 112.192Z" fill="#EC6046"/>
<path d="M156.213 121.218C156.016 121.118 155.844 121.015 155.698 120.909L157.754 116.9C157.318 116.719 156.901 116.704 156.503 116.854C156.105 117.005 155.802 117.283 155.594 117.689C155.294 118.273 155.328 118.81 155.694 119.3L155.093 120.471C154.691 120.067 154.442 119.577 154.345 119C154.251 118.432 154.362 117.841 154.677 117.225C154.935 116.723 155.277 116.329 155.705 116.042C156.136 115.764 156.613 115.615 157.138 115.593C157.665 115.58 158.2 115.711 158.74 115.985C159.281 116.259 159.7 116.607 159.997 117.029C160.296 117.461 160.457 117.93 160.478 118.437C160.495 118.949 160.372 119.463 160.109 119.977C159.855 120.472 159.52 120.859 159.106 121.136C158.691 121.414 158.231 121.561 157.725 121.577C157.226 121.596 156.723 121.476 156.213 121.218ZM157.138 120.259C157.542 120.456 157.937 120.476 158.322 120.319C158.707 120.162 159.005 119.878 159.217 119.465C159.409 119.091 159.452 118.709 159.347 118.32C159.248 117.934 159.008 117.612 158.627 117.355L157.138 120.259Z" fill="#EC6046"/>
</svg>
