<svg width="1134" height="98" viewBox="0 0 1134 98" fill="none" xmlns="http://www.w3.org/2000/svg">
<path d="M0.725164 96.396V93.096L3.36516 92.832C6.44516 92.48 8.77716 92.04 10.3612 91.512C12.0332 90.896 13.1772 89.664 13.7932 87.816C14.4092 85.88 14.7172 82.756 14.7172 78.444V19.836C14.7172 15.436 14.4092 12.312 13.7932 10.464C13.1772 8.616 12.0332 7.428 10.3612 6.9C8.77716 6.284 6.44516 5.79999 3.36516 5.44799L0.725164 5.184V1.88399L20.2612 2.27999H27.6532L59.0692 78.444L93.7852 2.27999H101.705L120.185 1.88399V5.184L117.545 5.44799C114.553 5.79999 112.221 6.284 110.549 6.9C108.877 7.428 107.733 8.616 107.117 10.464C106.501 12.312 106.193 15.436 106.193 19.836V78.444C106.193 82.756 106.501 85.88 107.117 87.816C107.733 89.752 108.877 90.984 110.549 91.512C112.221 92.04 114.553 92.48 117.545 92.832L120.185 93.096V96.396L100.649 96L80.9812 96.396V93.096L83.6212 92.832C86.7012 92.48 89.0332 92.04 90.6172 91.512C92.2892 90.984 93.4332 89.752 94.0492 87.816C94.6652 85.88 94.9732 82.756 94.9732 78.444V10.596L55.9012 96H53.3932L19.3372 11.916V82.14C19.3372 84.956 19.6892 87.068 20.3932 88.476C21.0972 89.884 22.2412 90.896 23.8252 91.512C25.4972 92.04 27.7852 92.48 30.6892 92.832L33.3292 93.096V96.396L16.5652 96L0.725164 96.396ZM138.859 97.452C134.635 97.452 131.115 96.396 128.299 94.284C125.571 92.084 124.207 89.048 124.207 85.176C124.207 81.304 125.923 77.872 129.355 74.88C132.787 71.8 136.791 69.028 141.367 66.564C144.799 64.628 148.231 62.956 151.663 61.548C155.095 60.14 158.043 58.952 160.507 57.984V53.76C160.507 48.92 159.583 45.312 157.735 42.936C155.975 40.56 152.587 39.372 147.571 39.372C145.195 39.372 142.863 39.68 140.575 40.296C138.287 40.912 137.143 42.056 137.143 43.728C137.143 44.08 137.187 44.476 137.275 44.916C137.451 45.356 137.583 45.796 137.671 46.236C138.111 47.38 138.331 48.568 138.331 49.8C138.331 51.472 137.715 52.792 136.483 53.76C135.339 54.64 133.931 55.08 132.259 55.08C130.675 55.08 129.355 54.508 128.299 53.364C127.243 52.132 126.715 50.68 126.715 49.008C126.715 45.84 127.903 43.332 130.279 41.484C132.743 39.548 135.735 38.184 139.255 37.392C142.775 36.512 146.163 36.072 149.419 36.072C156.459 36.072 161.607 37.7 164.863 40.956C168.119 44.212 169.747 49.536 169.747 56.928V80.688C169.747 84.56 170.011 87.552 170.539 89.664C171.155 91.776 172.475 92.832 174.499 92.832C175.819 92.832 176.963 92.348 177.931 91.38C178.899 90.412 179.559 89.356 179.911 88.212L182.287 89.136C181.583 91.688 180.307 93.712 178.459 95.208C176.699 96.704 174.235 97.452 171.067 97.452C167.195 97.452 164.511 96.352 163.015 94.152C161.607 91.864 160.815 88.872 160.639 85.176C158.175 89.136 155.051 92.172 151.267 94.284C147.483 96.396 143.347 97.452 138.859 97.452ZM134.503 84.516C134.503 86.98 135.207 88.96 136.615 90.456C138.111 91.864 140.267 92.568 143.083 92.568C145.635 92.568 148.055 91.952 150.343 90.72C152.719 89.488 154.787 87.948 156.547 86.1C158.307 84.164 159.627 82.096 160.507 79.896V60.624C157.603 61.856 154.611 63.308 151.531 64.98C148.539 66.564 145.723 68.368 143.083 70.392C140.531 72.416 138.463 74.616 136.879 76.992C135.295 79.28 134.503 81.788 134.503 84.516ZM176.378 96.396V93.36L178.49 93.096C181.042 92.744 182.978 92.348 184.298 91.908C185.706 91.38 186.674 90.28 187.202 88.608C187.73 86.848 187.994 83.988 187.994 80.028V15.612C187.994 11.036 187.026 8.132 185.09 6.9C183.242 5.57999 180.646 4.91999 177.302 4.91999H176.378V1.88399C179.986 1.88399 183.462 1.79599 186.806 1.62C190.15 1.35599 193.626 0.915994 197.234 0.299997V70.92L216.77 47.556C217.914 46.148 218.486 44.916 218.486 43.86C218.486 42.54 217.43 41.748 215.318 41.484L213.206 41.22V38.184L225.878 38.448L236.966 38.184V41.22L234.854 41.484C230.894 42.012 227.55 43.2 224.822 45.048C222.182 46.896 219.762 49.14 217.562 51.78L209.906 60.888L232.346 85.968C233.666 87.464 235.118 89.004 236.702 90.588C238.286 92.084 239.87 92.92 241.454 93.096L243.566 93.36V96.396L228.914 96L203.966 67.884L197.234 75.936V80.028C197.234 83.988 197.498 86.848 198.026 88.608C198.554 90.28 199.478 91.38 200.798 91.908C202.206 92.348 204.186 92.744 206.738 93.096L208.85 93.36V96.396L192.614 96L176.378 96.396ZM267.97 97.452C262.162 97.452 257.102 96.22 252.79 93.756C248.478 91.204 245.09 87.728 242.626 83.328C240.25 78.84 239.062 73.736 239.062 68.016C239.062 61.856 240.382 56.4 243.022 51.648C245.662 46.808 249.182 43.024 253.582 40.296C258.07 37.48 262.998 36.072 268.367 36.072C275.142 36.072 280.422 38.228 284.207 42.54C288.079 46.852 290.015 52.528 290.015 59.568C290.015 60.624 289.97 61.504 289.882 62.208C289.794 62.912 289.707 63.396 289.619 63.66H249.754C249.666 64.892 249.622 66.124 249.622 67.356C249.622 72.02 250.37 76.376 251.866 80.424C253.362 84.384 255.606 87.552 258.598 89.928C261.678 92.304 265.419 93.492 269.819 93.492C273.955 93.492 277.607 92.348 280.775 90.06C284.031 87.684 286.539 84.208 288.298 79.632L291.467 80.82C287.77 91.908 279.938 97.452 267.97 97.452ZM268.367 39.372C262.91 39.372 258.642 41.308 255.562 45.18C252.57 49.052 250.722 54.2 250.018 60.624H266.783C270.742 60.624 273.734 60.184 275.758 59.304C277.87 58.336 279.278 57.192 279.983 55.872C280.775 54.464 281.171 53.1 281.171 51.78C281.171 47.908 279.851 44.872 277.211 42.672C274.571 40.472 271.623 39.372 268.367 39.372ZM335.813 96.396V93.096L338.453 92.832C341.533 92.48 343.865 92.04 345.449 91.512C347.121 90.896 348.265 89.664 348.881 87.816C349.497 85.88 349.805 82.756 349.805 78.444V58.116L326.705 17.724C324.681 14.116 322.657 11.432 320.633 9.67199C318.609 7.912 315.793 6.68 312.185 5.97599L308.357 5.184V1.88399L328.421 2.27999L348.221 1.88399V5.184L343.997 5.57999C341.797 5.75599 340.037 6.284 338.717 7.164C337.397 8.04399 336.737 9.364 336.737 11.124C336.737 13.148 337.705 15.832 339.641 19.176L358.913 52.704L378.053 19.176C379.989 15.656 380.957 12.928 380.957 10.992C380.957 9.144 380.253 7.824 378.845 7.032C377.437 6.24 375.633 5.75599 373.433 5.57999L369.605 5.184V1.88399L387.029 2.544L401.021 1.88399V5.184L397.457 5.844C394.641 6.37199 392.309 7.38399 390.461 8.88C388.701 10.376 386.897 12.752 385.049 16.008L361.025 57.984V78.444C361.025 82.756 361.333 85.88 361.949 87.816C362.565 89.664 363.709 90.896 365.381 91.512C367.053 92.04 369.385 92.48 372.377 92.832L375.017 93.096V96.396L355.481 96H355.349L335.813 96.396ZM414.916 97.452C409.284 97.452 404.136 96.088 399.472 93.36C394.896 90.632 391.244 86.98 388.516 82.404C385.876 77.74 384.556 72.592 384.556 66.96C384.556 61.152 385.876 55.916 388.516 51.252C391.244 46.588 394.896 42.892 399.472 40.164C404.136 37.436 409.284 36.072 414.916 36.072C420.636 36.072 425.784 37.436 430.36 40.164C434.936 42.892 438.544 46.588 441.184 51.252C443.912 55.916 445.276 61.152 445.276 66.96C445.276 72.592 443.912 77.74 441.184 82.404C438.544 86.98 434.936 90.632 430.36 93.36C425.784 96.088 420.636 97.452 414.916 97.452ZM414.916 94.152C419.668 94.152 423.496 92.964 426.4 90.588C429.304 88.124 431.416 84.868 432.736 80.82C434.056 76.684 434.716 72.064 434.716 66.96C434.716 61.68 434.056 56.972 432.736 52.836C431.416 48.7 429.304 45.444 426.4 43.068C423.496 40.604 419.668 39.372 414.916 39.372C410.164 39.372 406.336 40.604 403.432 43.068C400.528 45.444 398.416 48.7 397.096 52.836C395.776 56.972 395.116 61.68 395.116 66.96C395.116 72.064 395.776 76.684 397.096 80.82C398.416 84.868 400.528 88.124 403.432 90.588C406.336 92.964 410.164 94.152 414.916 94.152ZM474.687 97.452C468.967 97.452 464.435 96.044 461.091 93.228C457.835 90.324 456.207 86.056 456.207 80.424V54.816C456.207 50.856 455.943 48.04 455.415 46.368C454.887 44.608 453.919 43.464 452.511 42.936C451.191 42.408 449.255 42.012 446.703 41.748L444.591 41.484V38.448L460.827 38.844L465.447 38.712V79.896C465.447 84.208 466.547 87.508 468.747 89.796C470.947 92.084 473.939 93.228 477.723 93.228C480.979 93.228 483.839 92.524 486.303 91.116C488.855 89.62 491.011 87.728 492.771 85.44C494.619 83.152 496.071 80.82 497.127 78.444V54.816C497.127 50.856 496.863 48.04 496.335 46.368C495.807 44.608 494.839 43.464 493.431 42.936C492.111 42.408 490.175 42.012 487.623 41.748L485.511 41.484V38.448L501.747 38.844L506.367 38.712V81.348C506.367 84.692 506.763 87.2 507.555 88.872C508.435 90.456 509.667 91.512 511.251 92.04C512.923 92.568 514.947 92.832 517.323 92.832V95.868C513.715 95.868 510.415 95.912 507.423 96C504.431 96.088 500.999 96.484 497.127 97.188V85.044C496.247 86.452 495.323 87.684 494.355 88.74C492.067 91.292 489.295 93.404 486.039 95.076C482.783 96.66 478.999 97.452 474.687 97.452ZM514.457 96.396V93.36L516.569 93.096C519.121 92.744 521.057 92.348 522.377 91.908C523.785 91.38 524.753 90.28 525.281 88.608C525.809 86.848 526.073 83.988 526.073 80.028V52.572C526.073 49.14 525.589 46.632 524.621 45.048C523.741 43.464 522.421 42.496 520.661 42.144C518.901 41.704 516.833 41.484 514.457 41.484V38.448C518.065 38.448 521.541 38.316 524.885 38.052C528.229 37.788 531.705 37.392 535.313 36.864L533.861 52.044H534.389C536.325 46.148 538.701 42.012 541.517 39.636C544.333 37.26 547.369 36.072 550.625 36.072C554.321 36.072 556.785 36.996 558.017 38.844C559.249 40.604 559.865 42.32 559.865 43.992C559.865 45.928 559.293 47.512 558.149 48.744C557.005 49.976 555.465 50.592 553.529 50.592C551.681 50.592 550.273 50.152 549.305 49.272C548.337 48.392 547.853 47.38 547.853 46.236C547.853 45.356 547.941 44.52 548.117 43.728C548.381 42.936 548.513 42.32 548.513 41.88C548.513 41 547.897 40.56 546.665 40.56C545.433 40.56 544.113 41.132 542.705 42.276C541.385 43.42 540.241 45.004 539.273 47.028C538.481 48.7 537.733 50.548 537.029 52.572C536.325 54.596 535.753 56.796 535.313 59.172V80.028C535.313 83.988 535.577 86.848 536.105 88.608C536.633 90.28 537.557 91.38 538.877 91.908C540.285 92.348 542.265 92.744 544.817 93.096L546.929 93.36V96.396L530.693 96L514.457 96.396ZM635.405 97.452C628.805 97.452 622.689 96.264 617.057 93.888C611.513 91.512 606.673 88.168 602.537 83.856C598.489 79.544 595.321 74.44 593.033 68.544C590.745 62.56 589.601 56.004 589.601 48.876C589.601 41.748 590.745 35.236 593.033 29.34C595.321 23.444 598.489 18.34 602.537 14.028C606.673 9.716 611.513 6.372 617.057 3.996C622.689 1.62 628.805 0.431995 635.405 0.431995C642.005 0.431995 648.077 1.62 653.621 3.996C659.253 6.372 664.093 9.716 668.141 14.028C672.277 18.34 675.489 23.444 677.777 29.34C680.065 35.236 681.209 41.748 681.209 48.876C681.209 56.004 680.065 62.56 677.777 68.544C675.489 74.44 672.277 79.544 668.141 83.856C664.093 88.168 659.253 91.512 653.621 93.888C648.077 96.264 642.005 97.452 635.405 97.452ZM635.405 93.492C643.061 93.492 649.265 91.688 654.017 88.08C658.769 84.472 662.245 79.368 664.445 72.768C666.645 66.08 667.745 58.116 667.745 48.876C667.745 39.636 666.645 31.716 664.445 25.116C662.245 18.428 658.769 13.324 654.017 9.80399C649.265 6.196 643.061 4.392 635.405 4.392C627.837 4.392 621.633 6.196 616.793 9.80399C612.041 13.324 608.565 18.428 606.365 25.116C604.165 31.716 603.065 39.636 603.065 48.876C603.065 58.116 604.165 66.08 606.365 72.768C608.565 79.368 612.041 84.472 616.793 88.08C621.633 91.688 627.837 93.492 635.405 93.492ZM706.6 96L690.364 51.252C689.308 48.348 688.076 46.06 686.668 44.388C685.26 42.716 683.456 41.792 681.256 41.616L679.804 41.484V38.448L693.796 38.844L706.732 38.448V41.484L705.412 41.616C701.012 41.968 698.812 43.64 698.812 46.632C698.812 47.16 698.856 47.732 698.944 48.348C699.032 48.964 699.208 49.624 699.472 50.328L712.276 85.836L726.928 52.704C727.368 51.648 727.72 50.68 727.984 49.8C728.336 48.832 728.512 47.996 728.512 47.292C728.512 43.684 726.708 41.792 723.1 41.616L719.008 41.484V38.448H723.628C726.884 38.448 729.26 39.768 730.756 42.408C731.372 40.912 732.56 39.9 734.32 39.372C736.168 38.756 737.84 38.448 739.336 38.448H745.408V41.484L743.428 41.616C741.844 41.704 740.7 42.188 739.996 43.068C739.292 43.86 738.94 44.872 738.94 46.104C738.94 47.248 739.292 48.744 739.996 50.592L753.724 85.704L767.452 50.856C767.628 50.24 767.848 49.492 768.112 48.612C768.464 47.732 768.64 47.028 768.64 46.5C768.64 43.86 766.484 42.276 762.172 41.748L760.06 41.484V38.448L772.468 38.844L782.896 38.448V41.484L780.784 41.748C777.704 42.1 775.504 43.2 774.184 45.048C772.952 46.896 771.852 48.964 770.884 51.252L753.196 96H748.18L731.02 51.78L711.616 96H706.6ZM778.617 96.396V93.36L780.729 93.096C783.281 92.744 785.217 92.348 786.537 91.908C787.945 91.38 788.913 90.28 789.441 88.608C789.969 86.848 790.233 83.988 790.233 80.028V52.176C790.233 47.6 789.265 44.696 787.329 43.464C785.481 42.144 782.885 41.484 779.541 41.484H778.617V38.448C782.225 38.448 785.701 38.36 789.045 38.184C792.389 37.92 795.865 37.48 799.473 36.864V47.556C801.497 44.564 804.357 41.924 808.053 39.636C811.749 37.26 816.061 36.072 820.989 36.072C826.973 36.072 831.681 37.612 835.113 40.692C838.633 43.684 840.393 47.996 840.393 53.628V80.028C840.393 83.988 840.657 86.848 841.185 88.608C841.713 90.28 842.637 91.38 843.957 91.908C845.365 92.348 847.345 92.744 849.897 93.096L852.009 93.36V96.396L835.773 96L819.537 96.396V93.36L821.649 93.096C824.201 92.744 826.137 92.348 827.457 91.908C828.865 91.38 829.833 90.28 830.361 88.608C830.889 86.848 831.153 83.988 831.153 80.028V53.628C831.153 49.228 830.009 45.884 827.721 43.596C825.433 41.22 822.221 40.032 818.085 40.032C814.917 40.032 812.057 40.78 809.505 42.276C806.953 43.684 804.841 45.444 803.169 47.556C801.497 49.668 800.265 51.692 799.473 53.628V80.028C799.473 83.988 799.737 86.848 800.265 88.608C800.793 90.28 801.717 91.38 803.037 91.908C804.445 92.348 806.425 92.744 808.977 93.096L811.089 93.36V96.396L794.853 96L778.617 96.396ZM923.869 97.452C914.893 97.452 907.149 95.384 900.637 91.248C894.213 87.112 889.241 81.436 885.721 74.22C882.289 66.916 880.573 58.556 880.573 49.14C880.573 42.1 881.717 35.632 884.005 29.736C886.293 23.84 889.461 18.692 893.509 14.292C897.557 9.892 902.221 6.504 907.501 4.12799C912.869 1.664 918.589 0.431995 924.661 0.431995C930.029 0.431995 934.429 1.048 937.861 2.27999C941.381 3.424 944.021 4.436 945.781 5.316C946.925 5.84399 947.981 6.32799 948.949 6.76799C949.917 7.11999 950.577 7.29599 950.929 7.29599C951.897 7.29599 952.689 6.944 953.305 6.24C953.921 5.448 954.317 4.128 954.493 2.27999H957.793L957.529 17.724L957.793 33.168H954.493C953.173 24.016 950.005 16.932 944.989 11.916C939.973 6.9 933.329 4.392 925.057 4.392C919.249 4.392 914.365 5.58 910.405 7.95599C906.445 10.244 903.277 13.456 900.901 17.592C898.525 21.64 896.765 26.392 895.621 31.848C894.565 37.216 894.037 42.98 894.037 49.14C894.037 58.38 895.005 66.3 896.941 72.9C898.965 79.5 902.221 84.604 906.709 88.212C911.285 91.732 917.401 93.492 925.057 93.492C930.777 93.492 935.749 92.172 939.973 89.532C944.197 86.892 947.585 83.372 950.137 78.972C952.777 74.572 954.361 69.732 954.889 64.452H958.057L957.793 80.556L958.189 96H955.021L954.625 94.548C954.273 93.404 953.833 92.348 953.305 91.38C952.865 90.324 952.073 89.796 950.929 89.796C950.313 89.796 949.565 89.972 948.685 90.324C947.893 90.676 946.969 91.116 945.913 91.644C943.625 92.788 940.633 94.064 936.937 95.472C933.241 96.792 928.885 97.452 923.869 97.452ZM980.725 97.452C976.501 97.452 972.981 96.396 970.165 94.284C967.437 92.084 966.073 89.048 966.073 85.176C966.073 81.304 967.789 77.872 971.221 74.88C974.653 71.8 978.657 69.028 983.233 66.564C986.665 64.628 990.097 62.956 993.529 61.548C996.961 60.14 999.909 58.952 1002.37 57.984V53.76C1002.37 48.92 1001.45 45.312 999.601 42.936C997.841 40.56 994.453 39.372 989.437 39.372C987.061 39.372 984.729 39.68 982.441 40.296C980.153 40.912 979.009 42.056 979.009 43.728C979.009 44.08 979.053 44.476 979.141 44.916C979.317 45.356 979.449 45.796 979.537 46.236C979.977 47.38 980.197 48.568 980.197 49.8C980.197 51.472 979.581 52.792 978.349 53.76C977.205 54.64 975.797 55.08 974.125 55.08C972.541 55.08 971.221 54.508 970.165 53.364C969.109 52.132 968.581 50.68 968.581 49.008C968.581 45.84 969.769 43.332 972.145 41.484C974.609 39.548 977.601 38.184 981.121 37.392C984.641 36.512 988.029 36.072 991.285 36.072C998.325 36.072 1003.47 37.7 1006.73 40.956C1009.99 44.212 1011.61 49.536 1011.61 56.928V80.688C1011.61 84.56 1011.88 87.552 1012.41 89.664C1013.02 91.776 1014.34 92.832 1016.37 92.832C1017.69 92.832 1018.83 92.348 1019.8 91.38C1020.77 90.412 1021.43 89.356 1021.78 88.212L1024.15 89.136C1023.45 91.688 1022.17 93.712 1020.33 95.208C1018.57 96.704 1016.1 97.452 1012.93 97.452C1009.06 97.452 1006.38 96.352 1004.88 94.152C1003.47 91.864 1002.68 88.872 1002.51 85.176C1000.04 89.136 996.917 92.172 993.133 94.284C989.349 96.396 985.213 97.452 980.725 97.452ZM976.369 84.516C976.369 86.98 977.073 88.96 978.481 90.456C979.977 91.864 982.133 92.568 984.949 92.568C987.501 92.568 989.921 91.952 992.209 90.72C994.585 89.488 996.653 87.948 998.413 86.1C1000.17 84.164 1001.49 82.096 1002.37 79.896V60.624C999.469 61.856 996.477 63.308 993.397 64.98C990.405 66.564 987.589 68.368 984.949 70.392C982.397 72.416 980.329 74.616 978.745 76.992C977.161 79.28 976.369 81.788 976.369 84.516ZM1018.24 96.396V93.36L1020.36 93.096C1022.91 92.744 1024.84 92.348 1026.16 91.908C1027.57 91.38 1028.54 90.28 1029.07 88.608C1029.6 86.848 1029.86 83.988 1029.86 80.028V15.612C1029.86 11.036 1028.89 8.132 1026.96 6.9C1025.11 5.57999 1022.51 4.91999 1019.17 4.91999H1018.24V1.88399C1021.85 1.88399 1025.33 1.79599 1028.67 1.62C1032.02 1.35599 1035.49 0.915994 1039.1 0.299997V70.92L1058.64 47.556C1059.78 46.148 1060.35 44.916 1060.35 43.86C1060.35 42.54 1059.3 41.748 1057.18 41.484L1055.07 41.22V38.184L1067.74 38.448L1078.83 38.184V41.22L1076.72 41.484C1072.76 42.012 1069.42 43.2 1066.69 45.048C1064.05 46.896 1061.63 49.14 1059.43 51.78L1051.77 60.888L1074.21 85.968C1075.53 87.464 1076.98 89.004 1078.57 90.588C1080.15 92.084 1081.74 92.92 1083.32 93.096L1085.43 93.36V96.396L1070.78 96L1045.83 67.884L1039.1 75.936V80.028C1039.1 83.988 1039.36 86.848 1039.89 88.608C1040.42 90.28 1041.34 91.38 1042.66 91.908C1044.07 92.348 1046.05 92.744 1048.6 93.096L1050.72 93.36V96.396L1034.48 96L1018.24 96.396ZM1109.84 97.452C1104.03 97.452 1098.97 96.22 1094.66 93.756C1090.34 91.204 1086.96 87.728 1084.49 83.328C1082.12 78.84 1080.93 73.736 1080.93 68.016C1080.93 61.856 1082.25 56.4 1084.89 51.648C1087.53 46.808 1091.05 43.024 1095.45 40.296C1099.94 37.48 1104.86 36.072 1110.23 36.072C1117.01 36.072 1122.29 38.228 1126.07 42.54C1129.94 46.852 1131.88 52.528 1131.88 59.568C1131.88 60.624 1131.84 61.504 1131.75 62.208C1131.66 62.912 1131.57 63.396 1131.48 63.66H1091.62C1091.53 64.892 1091.49 66.124 1091.49 67.356C1091.49 72.02 1092.24 76.376 1093.73 80.424C1095.23 84.384 1097.47 87.552 1100.46 89.928C1103.54 92.304 1107.28 93.492 1111.68 93.492C1115.82 93.492 1119.47 92.348 1122.64 90.06C1125.9 87.684 1128.4 84.208 1130.16 79.632L1133.33 80.82C1129.64 91.908 1121.8 97.452 1109.84 97.452ZM1110.23 39.372C1104.78 39.372 1100.51 41.308 1097.43 45.18C1094.44 49.052 1092.59 54.2 1091.88 60.624H1108.65C1112.61 60.624 1115.6 60.184 1117.62 59.304C1119.74 58.336 1121.14 57.192 1121.85 55.872C1122.64 54.464 1123.04 53.1 1123.04 51.78C1123.04 47.908 1121.72 44.872 1119.08 42.672C1116.44 40.472 1113.49 39.372 1110.23 39.372Z" fill="#211C1C"/>
</svg>
