<svg width="22" height="22" viewBox="0 0 22 22" fill="none" xmlns="http://www.w3.org/2000/svg">
<path d="M4.30854 12.5727C3.40874 10.31 3.4543 7.76834 4.44943 5.55934L7.45352 5.50002C7.50325 5.49904 7.54419 5.5389 7.54453 5.58864L7.56984 9.2738C7.57001 9.29768 7.56059 9.32063 7.5437 9.33752L4.30854 12.5727ZM4.30854 12.5727C4.75453 13.6942 5.43278 14.7472 6.34278 15.6572C7.25278 16.5672 8.30578 17.2455 9.42731 17.6915M9.42731 17.6915C11.69 18.5913 14.2317 18.5457 16.4407 17.5506L16.5 14.5465C16.501 14.4967 16.4611 14.4558 16.4114 14.4555L12.7262 14.4302C12.7023 14.43 12.6794 14.4394 12.6625 14.4563L9.42731 17.6915Z" stroke="black" stroke-width="1.2"/>
</svg>
